HIERARCHY
ROOT Hips
{
	OFFSET 0.000000 0.000000 0.000000
	CHANNELS 6 Xposition Yposition Zposition Zrotation Yrotation Xrotation 
	JOINT LowerBack
	{
		OFFSET 0.000000 0.000000 0.000000
		CHANNELS 3 Zrotation Yrotation Xrotation
		JOINT Spine
		{
			OFFSET 0.028270 2.035590 -0.193380
			CHANNELS 3 Zrotation Yrotation Xrotation
			JOINT Spine1
			{
				OFFSET 0.056720 2.048850 -0.042750
				CHANNELS 3 Zrotation Yrotation Xrotation
				JOINT Neck
				{
					OFFSET 0.000000 0.000000 0.000000
					CHANNELS 3 Zrotation Yrotation Xrotation
					JOINT Neck1
					{
						OFFSET -0.054170 1.746240 0.172020
						CHANNELS 3 Zrotation Yrotation Xrotation
						JOINT Head
						{
							OFFSET 0.104070 1.761360 -0.123970
							CHANNELS 3 Zrotation Yrotation Xrotation
							End Site
							{
								OFFSET 0.000000 0.000000 0.000000
							}
						}
					}
				}
				JOINT LeftShoulder
				{
					OFFSET 0.000000 0.000000 0.000000
					CHANNELS 3 Zrotation Yrotation Xrotation
					JOINT LeftArm
					{
						OFFSET 3.362410 1.200890 -0.311210
						CHANNELS 3 Zrotation Yrotation Xrotation
						JOINT LeftForeArm
						{
							OFFSET 4.983000 -0.000000 -0.000000
							CHANNELS 3 Zrotation Yrotation Xrotation
							JOINT LeftHand
							{
								OFFSET 3.483560 -0.000000 -0.000000
								CHANNELS 3 Zrotation Yrotation Xrotation
								JOINT LeftFingerBase
								{
									OFFSET 0.000000 0.000000 0.000000
									CHANNELS 3 Zrotation Yrotation Xrotation
									JOINT LeftHandIndex1
									{
										OFFSET 0.715260 -0.000000 -0.000000
										CHANNELS 3 Zrotation Yrotation Xrotation
										End Site
										{
											OFFSET 0.000000 0.000000 0.000000
										}
									}
								}
								JOINT LThumb
								{
									OFFSET 0.000000 0.000000 0.000000
									CHANNELS 3 Zrotation Yrotation Xrotation
									End Site
									{
										OFFSET 0.000000 0.000000 0.000000
									}
								}
							}
						}
					}
				}
				JOINT RightShoulder
				{
					OFFSET 0.000000 0.000000 0.000000
					CHANNELS 3 Zrotation Yrotation Xrotation
					JOINT RightArm
					{
						OFFSET -3.136600 1.374050 -0.404650
						CHANNELS 3 Zrotation Yrotation Xrotation
						JOINT RightForeArm
						{
							OFFSET -5.241900 -0.000000 -0.000000
							CHANNELS 3 Zrotation Yrotation Xrotation
							JOINT RightHand
							{
								OFFSET -3.444170 -0.000000 -0.000000
								CHANNELS 3 Zrotation Yrotation Xrotation
								JOINT RightFingerBase
								{
									OFFSET 0.000000 0.000000 0.000000
									CHANNELS 3 Zrotation Yrotation Xrotation
									JOINT RightHandIndex1
									{
										OFFSET -0.622530 -0.000000 -0.000000
										CHANNELS 3 Zrotation Yrotation Xrotation
										End Site
										{
											OFFSET 0.000000 0.000000 0.000000
										}
									}
								}
								JOINT RThumb
								{
									OFFSET 0.000000 0.000000 0.000000
									CHANNELS 3 Zrotation Yrotation Xrotation
									End Site
									{
										OFFSET 0.000000 0.000000 0.000000
									}
								}
							}
						}
					}
				}
			}
		}
	}
}
}
MOTION
Frames: 12
Frame Time: 0.008333
5.371871 15.250269 2.264523 -138.130307 -83.524391 -163.372747 3.252047 -1.812147 -2.270802 0.070074 -2.102278 -3.331915 -5.432574 -2.191404 0.497083 8.513028 -11.356935 -12.144509 -2.361036 -0.078660 -1.955400 0.000000 0.000000 0.000000 4.963459 11.602678 2.521501 -51.959950 -4.290719 2.435666 -178.968722 -78.510416 179.965453 2.070970 8.801353 0.168970 -0.179490 0.268831 0.000000 0.000000 0.000000 0.000000 0.000000 0.000000 0.000000 10.379621 -6.576438 3.344970 70.170907 -2.839317 6.502480 1.529105 49.750656 -0.000390 -3.882932 8.881198 -0.319555 0.111558 -0.288331 0.000000 0.000000 0.000000 0.000000 0.000000 0.000000 0.000000 
5.293957 15.154226 2.244781 -140.481370 -83.741928 -160.708139 3.183074 -1.901230 -2.466959 0.070375 -2.195537 -3.369970 -5.401219 -2.286314 0.533281 8.737341 -11.768030 -12.401427 -2.340339 -0.073126 -2.031718 0.000000 0.000000 0.000000 5.052874 11.771711 2.515328 -52.458424 -3.347650 2.679783 -178.954167 -78.215386 179.966646 1.939509 8.913168 0.160963 -0.174494 0.263884 0.000000 0.000000 0.000000 0.000000 0.000000 0.000000 0.000000 10.629707 -6.992170 3.364416 69.847780 -3.125695 6.533848 1.543355 50.046031 0.000037 -3.826986 8.721304 -0.309648 0.113638 -0.286317 0.000000 0.000000 0.000000 0.000000 0.000000 0.000000 0.000000 
5.216901 15.050622 2.224372 -143.384124 -83.988396 -157.492572 3.083524 -1.999526 -2.654170 0.063573 -2.296109 -3.407069 -5.368849 -2.388844 0.563551 8.973670 -12.181611 -12.658295 -2.317894 -0.067337 -2.108871 0.000000 0.000000 0.000000 5.110366 11.914155 2.512727 -52.961678 -2.395140 2.941429 -178.949927 -78.011776 179.967215 1.885776 9.054765 0.159258 -0.170825 0.258297 0.000000 0.000000 0.000000 0.000000 0.000000 0.000000 0.000000 10.897128 -7.418412 3.386940 69.505041 -3.407915 6.600754 1.559555 50.332659 0.000632 -3.747164 8.623069 -0.300138 0.115507 -0.284743 0.000000 0.000000 0.000000 0.000000 0.000000 0.000000 0.000000 
5.140660 14.939909 2.203603 -146.898025 -84.253527 -153.662400 2.959595 -2.107113 -2.831649 0.051117 -2.404277 -3.442658 -5.335415 -2.499224 0.589199 9.220993 -12.599807 -12.916052 -2.292950 -0.061196 -2.187344 0.000000 0.000000 0.000000 5.136699 12.036461 2.513208 -53.475540 -1.442794 3.217044 -178.955757 -77.902503 179.967336 1.899203 9.192443 0.162654 -0.168228 0.252872 0.000000 0.000000 0.000000 0.000000 0.000000 0.000000 0.000000 11.176930 -7.859182 3.412247 69.146884 -3.667471 6.707818 1.579313 50.584890 0.001506 -3.639396 8.638444 -0.292329 0.117144 -0.283960 0.000000 0.000000 0.000000 0.000000 0.000000 0.000000 0.000000 
5.065150 14.822709 2.182718 -151.224770 -84.530913 -149.013877 2.810460 -2.227858 -3.000109 0.032671 -2.523886 -3.477840 -5.301433 -2.621356 0.607108 9.474846 -12.988723 -13.168859 -2.269190 -0.055120 -2.265610 0.000000 0.000000 0.000000 5.135119 12.145536 2.519704 -54.008911 -0.497732 3.504267 -178.971281 -77.899428 179.967194 1.967168 9.286265 0.169654 -0.166502 0.248578 0.000000 0.000000 0.000000 0.000000 0.000000 0.000000 0.000000 11.470073 -8.280184 3.438525 68.785270 -3.933728 6.799382 1.601402 50.803204 0.002760 -3.491699 8.812147 -0.286315 0.118243 -0.284351 0.000000 0.000000 0.000000 0.000000 0.000000 0.000000 0.000000 
4.990348 14.699769 2.162073 -156.263100 -84.804896 -143.644425 2.656478 -2.358862 -3.157958 0.012716 -2.652815 -3.510901 -5.267069 -2.752924 0.622076 9.735005 -13.370664 -13.422815 -2.243382 -0.048722 -2.345667 0.000000 0.000000 0.000000 5.105459 12.251527 2.529904 -54.576059 0.432984 3.794792 -178.997563 -78.019410 179.966996 2.076023 9.300019 0.178458 -0.165166 0.246211 0.000000 0.000000 0.000000 0.000000 0.000000 0.000000 0.000000 11.767329 -8.707055 3.465870 68.423649 -4.158795 6.899745 1.628166 50.925417 0.004388 -3.346322 9.200839 -0.286699 0.119367 -0.286165 0.000000 0.000000 0.000000 0.000000 0.000000 0.000000 0.000000 
4.916003 14.571786 2.141904 -162.002640 -85.067597 -137.560347 2.511961 -2.499972 -3.305805 -0.006120 -2.791564 -3.542095 -5.233575 -2.894363 0.634135 9.998076 -13.728665 -13.676007 -2.217124 -0.042190 -2.427124 0.000000 0.000000 0.000000 5.047430 12.365415 2.545301 -55.190393 1.342897 4.083556 -179.036077 -78.295069 179.966870 2.216691 9.203057 0.187566 -0.163979 0.246427 0.000000 0.000000 0.000000 0.000000 0.000000 0.000000 0.000000 12.067684 -9.123318 3.492824 68.072814 -4.350952 6.968141 1.658672 50.920564 0.006360 -3.235844 9.838906 -0.296579 0.120746 -0.289527 0.000000 0.000000 0.000000 0.000000 0.000000 0.000000 0.000000 
4.841946 14.439630 2.122475 -168.246060 -85.310162 -130.957572 2.398531 -2.646690 -3.443559 -0.019908 -2.936658 -3.571237 -5.203078 -3.042094 0.644704 10.261112 -14.054387 -13.928191 -2.191023 -0.035608 -2.509978 0.000000 0.000000 0.000000 4.957861 12.499679 2.566396 -55.862746 2.225898 4.364005 -179.089121 -78.767584 179.966860 2.386614 8.978033 0.195678 -0.162791 0.249484 0.000000 0.000000 0.000000 0.000000 0.000000 0.000000 0.000000 12.369164 -9.520279 3.518472 67.742607 -4.510394 6.973162 1.692240 50.745703 0.008576 -3.209646 10.745177 -0.321056 0.122814 -0.294319 0.000000 0.000000 0.000000 0.000000 0.000000 0.000000 0.000000 
4.767972 14.304217 2.103949 -174.612437 -85.524182 -124.217198 2.337007 -2.789760 -3.570698 -0.025158 -3.079969 -3.598329 -5.178739 -3.187978 0.654507 10.521317 -14.334580 -14.177517 -2.166468 -0.029163 -2.593669 0.000000 0.000000 0.000000 4.828982 12.667225 2.593838 -56.597971 3.076597 4.628657 -179.159494 -79.487241 179.966915 2.592139 8.623502 0.202594 -0.161659 0.255138 0.000000 0.000000 0.000000 0.000000 0.000000 0.000000 0.000000 12.672712 -9.881835 3.542408 67.442256 -4.648557 6.873307 1.727626 50.360422 0.010919 -3.316869 11.915147 -0.367332 0.125933 -0.300170 0.000000 0.000000 0.000000 0.000000 0.000000 0.000000 0.000000 
4.693712 14.166434 2.086356 179.403297 -85.701836 -117.843908 2.336739 -2.917142 -3.686504 -0.020644 -3.210210 -3.622697 -5.163533 -3.320845 0.666044 10.777833 -14.564174 -14.423459 -2.143912 -0.022925 -2.677994 0.000000 0.000000 0.000000 4.650446 12.884241 2.627543 -57.393187 3.883592 4.870734 -179.249981 -80.510505 179.966873 2.847454 8.155293 0.208711 -0.160811 0.262615 0.000000 0.000000 0.000000 0.000000 0.000000 0.000000 0.000000 12.981219 -10.200270 3.564669 67.178462 -4.768728 6.637547 1.763615 49.718610 0.013255 -3.601746 13.319880 -0.444811 0.130374 -0.306445 0.000000 0.000000 0.000000 0.000000 0.000000 0.000000 0.000000 
4.618955 14.027372 2.069912 174.225011 -85.840671 -112.267033 2.395054 -3.017811 -3.791290 -0.007644 -3.316695 -3.645345 -5.160294 -3.430375 0.676904 11.023969 -14.719659 -14.658475 -2.126267 -0.017319 -2.760429 0.000000 0.000000 0.000000 4.405346 13.147466 2.669154 -58.235436 4.652034 5.076452 -179.362596 -81.893736 179.966511 3.176258 7.601485 0.215027 -0.160669 0.270690 0.000000 0.000000 0.000000 0.000000 0.000000 0.000000 0.000000 13.295185 -10.447822 3.586438 66.960847 -4.908184 6.213129 1.797809 48.789289 0.015479 -4.091149 14.922327 -0.564293 0.136060 -0.312432 0.000000 0.000000 0.000000 0.000000 0.000000 0.000000 0.000000 
4.543404 13.887999 2.054266 170.281109 -85.937632 -107.916568 2.495684 -3.083912 -3.882888 0.009702 -3.391173 -3.664161 -5.170759 -3.508520 0.691973 11.262830 -14.803835 -14.883724 -2.113767 -0.012352 -2.841241 0.000000 0.000000 0.000000 4.082887 13.476836 2.719046 -59.104801 5.356557 5.239946 -179.498218 -83.699265 179.965632 3.599502 7.003662 0.222236 -0.161601 0.277843 0.000000 0.000000 0.000000 0.000000 0.000000 0.000000 0.000000 13.624868 -10.627397 3.607691 66.790249 -5.064243 5.576769 1.828510 47.533668 0.017515 -4.779751 16.644266 -0.732885 0.142603 -0.317188 0.000000 0.000000 0.000000 0.000000 0.000000 0.000000 0.000000 
